<svg id="Layer_1" xmlns="http://www.w3.org/2000/svg" viewBox="0 0 31.3 24.8"><style>.st0,.st1,.st2{stroke:#5f5f5f;stroke-width:.5}.st0{stroke-linejoin:round;fill:url(#Stroke-1_1_)}.st1,.st2{fill:#f3f3f3}.st2{fill:#00bad9}</style><title>brokers_agents_icon@3x</title><g id="brokers-agents-icon-mobile-1"><g id="Artboard" transform="translate(-732 -253)"><g id="brokers_agents_icon" transform="translate(732 253)"><g id="icon" transform="translate(15 18)"><linearGradient id="Stroke-1_1_" gradientUnits="userSpaceOnUse" x1="-7.175" y1="-2.088" x2="-8.317" y2="-2.692" gradientTransform="matrix(29.7619 0 0 -12.2458 223.547 -27.354)"><stop offset="0" stop-color="#18D593"/><stop offset="1" stop-color="#00BAD9"/></linearGradient><path id="Stroke-1" class="st0" d="M15.5 5.9L-14.2 5.9 -9.8 -6.3 11 -6.3z"/><path id="Combined-Shape" class="st1" d="M7.7-9.5V.2c0 .3-.3.6-.6.6h-13c-.3 0-.6-.3-.6-.6v-9.7h-1.9c-.1 0-.3-.1-.4-.2-.1-.2-.1-.5.1-.6l9-6.6c.2-.2.5-.2.7 0l9 6.6c.1.1.2.2.2.4s-.2.4-.4.4H7.7z"/><path id="path-1" class="st2" d="M-1.4-5.7h4.2c.3 0 .6.3.6.6V.8H-2v-5.9c0-.3.2-.6.6-.6z"/></g></g></g></g></svg>