<svg id="Ebene_1" xmlns="http://www.w3.org/2000/svg" viewBox="0 0 71 56.459961"><style>.st0{fill:#00415A;} .st1{fill:#009BD1;}</style><path class="st0" d="M36.35 5.305c-1.24-.357-2.52-.605-3.84-.737.2.293.328.624.328 1.01 0 .44-.064.74-.165.952 1.235-.305 2.65-.324 4.283.518.007-.108.028-.225.06-.34.133-.437-.204-.945-.665-1.403"/><path class="st0" d="M10.794 37.37c-1.757-3.177-2.758-6.826-2.758-10.714 0-3.72.923-7.23 2.547-10.314-.236.765-.4 1.406-.512 1.68-.478 1.218-.57 4.248-.464 4.534.83 2.304 3.313 4.833 5.188 6.146 1.87 1.32 2.704 1.874 3.33 2.293.626.42.694 1.037-.068 1.596-.77.56-.973 2.777-.905 3.192.023.118.083.357.212.69 3.062-.622 6.382-1.538 9.75-2.697-.835-.54-1.718-1.024-2.55-1.356-1.093-.44-1.186-1.66-.685-2.817-1.285-.418-2.265-.59-2.35-.62-.208-.066-1.947.145-2.433.84-.487.69-1.732-.348-2.082-1.046-.348-.694-.555-1.528-1.317-1.87-.762-.348.207-2.02.207-2.02s-.067-1.315-1.455-.278c-1.392 1.044-1.6-.07-1.46-.967.14-.905 1.32-2.5 2.43-2.5s2.36.622 2.36 1.456c0 .83-.07 2.288.694 2.496.763.21 1.53-.69 1.25-1.46-.28-.762-.902-2.286-.555-2.704.347-.415 1.25-1.038 4.3-3.742 0 0 1.667-.35 2.36-.35.695 0 .416-1.042-.76-1.042-1.18 0-.695-1.245.76-1.317 1.46-.066 2.155-.625 1.46-1.594-.693-.973-1.248-1.735-2.64-2.082-1.387-.35-1.602 1.037-1.806 1.384-.208.347-.69 1.74-1.664.21-.973-1.523-.694-1.734.07-2.08.763-.348 1.87-.902 2.91-1.042 1.044-.14 1.667-1.18.833-1.46-.834-.278-1.6.215-2.15.56-.498.31-2.008-.62-2.355-1.672 2.143-1.048 4.48-1.76 6.94-2.07.086.256.254.475.483.525.627.135.902 1.04.902 1.04s.14 1.17.308 1.78c.33-.192.658-.356.962-.482.766-.315 1.628-.73 2.594-.973.1-.21.16-.515.16-.948 0-.39-.125-.726-.325-1.016 1.32.137 2.596.388 3.84.742.463.458.796.96.667 1.402-.036.115-.058.23-.065.344.08.04.16.082.243.132 2.304 1.29 11.36 5.928 15.995 8.342-4.132-8.503-12.857-14.37-22.953-14.37-14.077 0-25.5 11.42-25.5 25.5 0 3.78.827 7.37 2.304 10.6.867.136 2.09.207 3.754.118M30.245 48.865c-1.828 0-3.595-.226-5.29-.64.46-.884 1.83-1.61 2.61-1.61.83 0 3.26-2.78 3.327-3.267.03-.186.308-.286.637-.325.056-1.23-.02-2.537-.2-3.66-3.185 1.177-6.347 2.16-9.37 2.92.064.185.085.38.05.582-.204 1.16-.437 2.72-.007 4.42-2.265-.914-4.35-2.18-6.175-3.74-1.302.2-2.562.354-3.753.444-.172.017-.333.02-.504.035 4.66 5.004 11.302 8.13 18.675 8.13 7.813 0 14.807-3.512 19.486-9.05-.202-1.563-.446-3.13-.743-4.54-3.94 6.193-10.86 10.3-18.742 10.3M41.922 25.636c.093-.215.086-.476-.003-.783-.005.26-.005.522.002.783"/><path class="st1" d="M61.09 16.642l-5.66 3.416c-2.258-1.22-15.662-8.47-17.873-9.715-2.42-1.36-4.25-.916-5.674-.322-1.428.588-.175 1.59 1.596 2.83 1.76 1.245 14.523 11.79 12.054 13.177l-6.522 3.93c-.002.005-3.502.877-8.496-.228-.926-.21-3.3.95-1.37 1.727 1.93.783 4.762 2.193 5.403 3.33.64 1.135.363 4.25.023 6.307-.336 2.053 1.8.79 2.19-.276 1.778-4.8 4.29-7.24 4.29-7.24l7.082-3.756c2.315.497 4.458 15.18 4.597 17.212.15 2.16.35 3.748 1.595 2.832 1.245-.915 2.573-2.246 2.662-5.016.085-2.51.815-17.414.955-20.23l5.877-3.122c1.342-.752 1.815-2.45 1.06-3.785-.755-1.346-2.455-1.822-3.792-1.07"/><path class="st0" d="M9.47 42.14c-4.268 0-7.36-1.006-8.25-3.39-.264-.696.097-1.48.795-1.74.7-.266 1.484.092 1.745.793.362.955 2.658 1.93 7.96 1.524 5.163-.393 11.663-1.982 18.302-4.464.702-.26 1.485.093 1.746.794.265.7-.093 1.484-.794 1.742-7.62 2.854-15.666 4.74-21.504 4.74"/><path class="st0" d="M30.978 37.4c.698-.26 1.055-1.042.794-1.747-.26-.7-1.044-1.05-1.746-.794-6.636 2.485-13.143 4.067-18.305 4.464-5.298.404-7.598-.566-7.956-1.52-.26-.702-1.044-1.06-1.745-.795-.703.264-1.06 1.044-.796 1.745.887 2.382 3.978 3.388 8.25 3.388 5.835-.004 13.88-1.89 21.504-4.744"/></svg>