<?xml version="1.0" encoding="iso-8859-1"?>
<!-- Generator: Adobe Illustrator 19.0.0, SVG Export Plug-In . SVG Version: 6.00 Build 0)  -->
<svg version="1.1" id="Layer_1" xmlns="http://www.w3.org/2000/svg" xmlns:xlink="http://www.w3.org/1999/xlink" x="0px" y="0px"
	 viewBox="0 0 496.158 496.158" style="enable-background:new 0 0 496.158 496.158;" xml:space="preserve">
<path style="fill:#25B7D3;" d="M0,248.085C0,111.062,111.07,0.003,248.076,0.003c137.012,0,248.082,111.059,248.082,248.082
	c0,137-111.07,248.07-248.082,248.07C111.07,496.155,0,385.085,0,248.085z"/>
<path style="fill:#010705;" d="M405.75,200.959c0,0-58.9-21.747-135.017-5.437c0,0-9.062,2.719-22.654,2.719
	c-13.592,0-22.654-2.719-22.654-2.719c-76.117-16.311-135.017,5.437-135.017,5.437l-1.812,21.748
	c8.156,9.968,5.438,21.295,9.968,38.965c15.477,60.358,78.836,42.589,78.836,42.589c56.182-10.873,61.619-69.773,61.619-69.773
	c0-9.969,9.061-9.969,9.061-9.969s9.062,0,9.062,9.969c0,0,5.437,58.9,61.618,69.773c0,0,63.358,17.77,78.836-42.589
	c4.531-17.67,1.812-28.997,9.968-38.965L405.75,200.959z"/>
<g>
	<path style="fill:#B7E3EA;" d="M389.439,223.168c0,0-9.062-24.927-70.681-24.927c0,0-47.119,0.89-52.557,31.158
		c0,0-7.135,43.668,43.494,64.987c47.121,19.843,75.17-11.886,79.895-28.185C394.272,250.043,394.876,232.071,389.439,223.168z"/>
	<path style="fill:#B7E3EA;" d="M106.718,223.168c0,0,9.062-24.927,70.682-24.927c0,0,47.119,0.89,52.557,31.158
		c0,0,7.134,43.668-43.496,64.987c-47.12,19.843-75.169-11.886-79.892-28.185C101.886,250.043,101.282,232.071,106.718,223.168z"/>
</g>
<g>
</g>
<g>
</g>
<g>
</g>
<g>
</g>
<g>
</g>
<g>
</g>
<g>
</g>
<g>
</g>
<g>
</g>
<g>
</g>
<g>
</g>
<g>
</g>
<g>
</g>
<g>
</g>
<g>
</g>
</svg>
