<?xml version="1.0" encoding="iso-8859-1"?>
<!-- Generator: Adobe Illustrator 18.0.0, SVG Export Plug-In . SVG Version: 6.00 Build 0)  -->
<!DOCTYPE svg PUBLIC "-//W3C//DTD SVG 1.1//EN" "http://www.w3.org/Graphics/SVG/1.1/DTD/svg11.dtd">
<svg version="1.1" id="Capa_1" xmlns="http://www.w3.org/2000/svg" xmlns:xlink="http://www.w3.org/1999/xlink" x="0px" y="0px"
	 viewBox="0 0 348.181 348.181" style="enable-background:new 0 0 348.181 348.181;" xml:space="preserve">
<g>
	<g>
		<path style="fill:#FFBBD2;" d="M301.68,211.837c30.035-30.033,40.477-70.34,22.801-88.016l-8.756-8.756L204.908,225.882
			l8.758,8.756c5.676,5.676,13.949,8.676,23.926,8.678C257.705,243.315,282.264,231.255,301.68,211.837z"/>
		<path style="fill:#FFBBD2;" d="M107.164,275.009c53.838,0,78.359-9.818,78.359-18.939v-22.914H28.807v22.914
			C28.807,265.19,53.326,275.009,107.164,275.009z"/>
		<path style="fill:#3CBCC6;" d="M106.707,96.796c4.143,0,7.5-3.357,7.5-7.5V65.673c0-4.143-3.357-7.5-7.5-7.5s-7.5,3.357-7.5,7.5
			v23.623C99.207,93.438,102.564,96.796,106.707,96.796z"/>
		<path style="fill:#3CBCC6;" d="M38.623,165.261c0-4.143-3.357-7.5-7.5-7.5H7.5c-4.143,0-7.5,3.357-7.5,7.5
			c0,4.143,3.357,7.5,7.5,7.5h23.623C35.266,172.761,38.623,169.403,38.623,165.261z"/>
		<path style="fill:#3CBCC6;" d="M175.555,165.261c0,4.143,3.357,7.5,7.5,7.5h23.623c4.143,0,7.5-3.357,7.5-7.5
			c0-4.143-3.357-7.5-7.5-7.5h-23.623C178.912,157.761,175.555,161.118,175.555,165.261z"/>
		<path style="fill:#3CBCC6;" d="M47.688,117.7c1.465,1.463,3.385,2.195,5.305,2.195c1.918,0,3.838-0.732,5.303-2.195
			c2.93-2.93,2.93-7.678,0-10.607L41.59,90.387c-2.93-2.928-7.678-2.928-10.607,0c-2.928,2.93-2.928,7.678,0,10.607L47.688,117.7z"
			/>
		<path style="fill:#3CBCC6;" d="M160.422,119.895c1.918,0,3.838-0.732,5.303-2.195l16.705-16.705c2.93-2.93,2.93-7.678,0-10.607
			c-2.93-2.928-7.678-2.928-10.607,0l-16.705,16.705c-2.928,2.93-2.928,7.678,0,10.607
			C156.582,119.163,158.502,119.895,160.422,119.895z"/>
		<path style="fill:#3CBCC6;" d="M335.088,113.214l-14.06-14.059c-2.928-2.928-7.678-2.928-10.607,0l-119,119h-66.545V185.35
			l31.422-20.572c2.93-1.918,4.143-5.607,2.922-8.889l-9.789-26.313c-1.094-2.938-3.896-4.885-7.029-4.885H71.779
			c-3.135,0-5.938,1.947-7.029,4.885l-9.789,26.313c-1.221,3.281-0.01,6.971,2.92,8.889l31.422,20.572v32.805H21.307
			c-4.143,0-7.5,3.357-7.5,7.5v30.414c0,28.051,50.768,33.939,93.357,33.939c42.59,0,93.359-5.889,93.359-33.939V242.71l2.535,2.535
			c8.551,8.549,20.492,13.068,34.533,13.07c0,0,0.002,0,0.004,0c24.309,0,52.23-13.41,74.691-35.871
			c17.195-17.197,29.211-37.67,33.83-57.648C351.027,143.555,347.109,125.237,335.088,113.214z M28.807,233.155h156.717v22.914
			c0,9.121-24.521,18.939-78.359,18.939s-78.357-9.818-78.357-18.939V233.155z M104.303,218.155v-21.672h5.572v21.672H104.303z
			 M71.105,155.509l5.885-15.816h60.197l5.885,15.816l-28.484,18.648v-13.971c0-4.143-3.357-7.5-7.5-7.5c-4.143,0-7.5,3.357-7.5,7.5
			v13.969L71.105,155.509z M204.908,225.882l110.816-110.816l8.756,8.756c17.676,17.676,7.234,57.982-22.801,88.016
			c-19.416,19.418-43.975,31.479-64.088,31.479c-9.977-0.002-18.25-3.002-23.926-8.678L204.908,225.882z"/>
	</g>
</g>
<g>
</g>
<g>
</g>
<g>
</g>
<g>
</g>
<g>
</g>
<g>
</g>
<g>
</g>
<g>
</g>
<g>
</g>
<g>
</g>
<g>
</g>
<g>
</g>
<g>
</g>
<g>
</g>
<g>
</g>
</svg>
