<?xml version="1.0" encoding="utf-8"?>
<!-- Generator: Adobe Illustrator 19.2.1, SVG Export Plug-In . SVG Version: 6.00 Build 0)  -->
<svg version="1.1" id="solid_color" xmlns="http://www.w3.org/2000/svg" xmlns:xlink="http://www.w3.org/1999/xlink" x="0px"
	 y="0px" viewBox="0 0 144 144" style="enable-background:new 0 0 144 144;" xml:space="preserve">
<style type="text/css">
	.st0{fill:#54B7C2;}
	.st1{fill:none;stroke:#163962;stroke-width:3;stroke-miterlimit:10;}
	.st2{fill:none;stroke:#163962;stroke-width:2;stroke-miterlimit:10;}
	.st3{fill:#163962;}
</style>
<title>icon_worksheetE</title>
<g>
	<path class="st0" d="M136.8,66.4C136.8,66.3,136.8,66.3,136.8,66.4c0-0.2-0.1-0.2-0.2-0.2c-1.3,0-2.3-0.6-3.8-0.7s-2.8-0.2-4.2-0.3
		c-2.5-0.3-5.1,0-7.5,0.8c-2.5,0.9-4.9,2.1-7.2,3.4c-0.9,0.4-1.8,0.9-2.6,1.5c-0.9,0.8-1.7,2-2.5,3c-0.1,0.2-0.1,0.4-0.2,0.5
		l-0.1,0.2c0,0.1,0,0.2,0,0.3c0,0,0,0,0,0c0,1-0.1,2.2-0.1,3.1c0,0.1,0,0.3,0,0.4v24c0.1,1,1.1,1.1,2.1,1c0.6-0.3,1.3-0.5,2-0.6
		c0.8-0.1,1.6-0.3,2.4-0.6c2.1-0.5,4.2-0.7,6.3-0.6c2.4-0.1,4.8-0.3,7.3-0.3c1.2,0,3.6-0.3,5.2,0.2c0.3,0,0.6,0.1,0.8,0.2
		c0.4,0.1,0.8,0.2,1.2,0.3c0,0,0,0,0,0v0c0,0,0,0,0.1,0v0h0.3c0.3-0.1,0.6-0.4,0.6-0.8V67.1C136.9,66.8,136.8,66.6,136.8,66.4z"/>
	<path class="st0" d="M105.7,74.9c-0.1-0.4-0.1-0.7-0.3-1.1l0,0.1c-0.8-1-1.5-2.1-2.4-3c-0.8-0.6-1.7-1.1-2.6-1.5
		c-2.3-1.3-4.7-2.4-7.2-3.4c-2.4-0.8-5-1.1-7.5-0.8c-1.4,0.1-2.9,0.2-4.2,0.3s-2.5,0.7-3.8,0.7h-0.1c-0.1,0.3-0.2,0.6-0.1,0.8h0.1
		v35.5c0.1,0,0.1,0.1,0.2,0.1l0.5-0.1l0.2,0v0c0.3-0.1,0.6-0.2,0.8-0.2l0.1-0.1l0.4-0.1c1.6-1,4.5-0.6,6-0.6c2.5,0,4.8,0.2,7.3,0.3
		c2.1,0,4.3,0.2,6.3,0.6c0.8,0.3,1.6,0.5,2.4,0.6c0.6,0.1,1.1,0.2,1.6,0.5c0.4,0,0.8,0.2,1.2,0.2h0.4l0.2-0.1
		c0.3-0.1,0.5-0.3,0.6-0.6v-0.1V75.4C105.8,75.3,105.7,75.1,105.7,74.9C105.7,74.9,105.7,74.9,105.7,74.9z"/>
	<path class="st0" d="M69.4,102.3C69.4,102.3,69.4,102.3,69.4,102.3c0-0.2-0.1-0.2-0.2-0.2c-1.3,0-2.3-0.6-3.8-0.6s-2.8-0.2-4.2-0.3
		c-2.5-0.3-5.1,0-7.5,0.8c-2.5,1-4.9,2.1-7.2,3.4c-0.9,0.4-1.8,0.9-2.6,1.5c-0.9,0.8-1.7,2-2.5,3c-0.1,0.2-0.1,0.4-0.2,0.5l0,0.2
		c0,0,0,0.1,0,0.1c0,0,0,0,0,0c0.1,1,0,2.3-0.1,3.4c0,0.1,0,0.3,0,0.4v24.1c0.1,1,1.1,1.1,2.1,1c0.6-0.3,1.3-0.5,2-0.6
		c0.8-0.1,1.6-0.3,2.4-0.6c2.1-0.5,4.2-0.7,6.3-0.6c2.4-0.1,4.8-0.3,7.3-0.3c1.2,0,3.6-0.3,5.2,0.2c0.3,0,0.6,0.1,0.8,0.2
		c0.4,0.1,0.8,0.3,1.2,0.3v0l0.1,0h0.2c0.3-0.1,0.6-0.4,0.6-0.8V103C69.4,102.8,69.4,102.6,69.4,102.3z"/>
	<path class="st0" d="M38.2,110.8C38,110.7,38.1,110.6,38.2,110.8c-0.1-0.4-0.1-0.7-0.3-1.1l-0.1,0.1c-0.8-1-1.5-2.1-2.4-3
		c-0.8-0.6-1.7-1.1-2.6-1.5c-2.3-1.3-4.7-2.4-7.2-3.4c-2.4-0.8-5-1.1-7.5-0.8c-1.4,0.1-2.9,0.2-4.2,0.3s-2.5,0.6-3.8,0.6H9.9
		c-0.1,0.3-0.2,0.6-0.1,0.9h0.1v35.4c0.1,0,0.1,0.1,0.2,0.1l0.4-0.1l0.4-0.1v0c0.3-0.1,0.6-0.2,0.8-0.2l0.1-0.1l0.4-0.1
		c1.6-1,4.5-0.6,6-0.6c2.5,0,4.8,0.2,7.3,0.3c2.1,0,4.3,0.2,6.3,0.6c0.8,0.3,1.6,0.5,2.4,0.6c0.6,0.1,1.1,0.2,1.6,0.5
		c0.4,0,0.8,0.2,1.2,0.2h0.5l0.2-0.1c0.3-0.1,0.5-0.3,0.6-0.6v0v-27.4C38.3,111.2,38.2,111,38.2,110.8
		C38.2,110.9,38.2,110.9,38.2,110.8z"/>
</g>
<ellipse id="_Path_" class="st1" cx="106.9" cy="22.6" rx="15.7" ry="18.3"/>
<polyline id="_Path_2" class="st1" points="88.9,48 70.9,54.4 70.9,76.8 106.9,76.8 "/>
<polyline id="_Path_3" class="st1" points="106.9,50.4 106.6,76.8 142.6,76.8 142.6,54.4 125.5,48 "/>
<line id="_Path_4" class="st1" x1="113.7" y1="67.7" x2="125.2" y2="67.7"/>
<g id="_Group_3">
	<path id="_Path_5" class="st2" d="M107.1,49.5c0,0,10.7-8.2,10.7-2.9v6.8C117.8,53.4,118.8,61.2,107.1,49.5z"/>
	<path id="_Path_6" class="st2" d="M106.6,49.5c0,0-10.6-8.2-10.6-2.9v6.8C96,53.4,95,61.2,106.6,49.5z"/>
</g>
<path id="_Path_7" class="st1" d="M99.9,6.2c0,0,10,12.2,22.3,12.4"/>
<path id="_Path_8" class="st1" d="M92.1,16.2c5,1.2,10.3-0.5,13.7-4.4"/>
<ellipse id="_Path_9" class="st1" cx="39.7" cy="56.7" rx="15.7" ry="18.3"/>
<polyline id="_Path_10" class="st1" points="39.7,111 8,111 8,88.5 23.9,82.1 "/>
<polyline id="_Path_11" class="st1" points="55.5,82.1 71.4,88.5 71.4,111 39.7,111 "/>
<path id="_Path_12" class="st1" d="M32.8,40.3c0,0,6.8,8.4,20.3,8"/>
<path class="st1" d="M56.5,74.7c0,0,0.9-23.5-3.8-27.7"/>
<path class="st1" d="M22.3,74.7c0,0-2.9-24.1,7.2-31.8"/>
<ellipse transform="matrix(8.901099e-03 -1 1 8.901099e-03 -42.138 131.9012)" class="st3" cx="45.5" cy="87.2" rx="1.8" ry="1.8"/>
<ellipse transform="matrix(8.901099e-03 -1 1 8.901099e-03 -34.9675 132.2548)" class="st3" cx="49.2" cy="83.8" rx="1.8" ry="1.8"/>
<ellipse transform="matrix(8.901099e-03 -1 1 8.901099e-03 -48.8156 126.9191)" class="st3" cx="39.6" cy="88.1" rx="1.8" ry="1.8"/>
<ellipse transform="matrix(8.901099e-03 -1 1 8.901099e-03 -53.0931 119.8182)" class="st3" cx="33.9" cy="86.7" rx="1.8" ry="1.8"/>
<ellipse transform="matrix(8.901099e-03 -1 1 8.901099e-03 -52.7594 112.6477)" class="st3" cx="30.4" cy="82.9" rx="1.8" ry="1.8"/>
</svg>
