<?xml version="1.0" encoding="iso-8859-1"?>
<!-- Generator: Adobe Illustrator 19.0.0, SVG Export Plug-In . SVG Version: 6.00 Build 0)  -->
<svg version="1.1" id="Layer_1" xmlns="http://www.w3.org/2000/svg" xmlns:xlink="http://www.w3.org/1999/xlink" x="0px" y="0px"
	 viewBox="0 0 512 512" style="enable-background:new 0 0 512 512;" xml:space="preserve">
<circle style="fill:#366695;" cx="256" cy="256" r="256"/>
<path style="fill:#263A7A;" d="M512,256c0-1.965-0.031-3.924-0.074-5.879L368.993,107.189l-53.231,48.824l-27.582,15.515
	l-49.131,35.34l1.724,27.582l-35.34-5.172l-61.199,12.067l-28.444,66.37l16.27,73.266l133.515,130.82
	C402.52,506.766,512,394.178,512,256z"/>
<polygon style="fill:#71E2EF;" points="312.889,174.514 368.993,107.189 346.552,84.747 279.226,84.747 256.784,107.189 "/>
<g>
	<polygon style="fill:#38C6D9;" points="312.889,174.514 340.492,107.189 329.45,84.747 296.327,84.747 285.286,107.189 	"/>
	<polygon style="fill:#38C6D9;" points="368.993,107.189 346.552,84.747 279.226,84.747 256.784,107.189 	"/>
</g>
<polygon style="fill:#71E2EF;" points="340.492,107.189 329.45,84.747 296.327,84.747 285.286,107.189 "/>
<path style="fill:#FFC91B;" d="M312.889,351.677c-52.757,0-95.677-42.92-95.677-95.677s42.92-95.677,95.677-95.677
	s95.677,42.92,95.677,95.677S365.646,351.677,312.889,351.677z M312.889,181.01c-41.35,0-74.99,33.64-74.99,74.99
	s33.64,74.99,74.99,74.99s74.99-33.64,74.99-74.99S354.238,181.01,312.889,181.01z"/>
<path style="fill:#D48B07;" d="M312.889,160.323c-0.384,0-0.764,0.024-1.148,0.029v20.687c0.384-0.005,0.764-0.029,1.148-0.029
	c41.35,0,74.99,33.64,74.99,74.99s-33.64,74.99-74.99,74.99c-0.384,0-0.765-0.024-1.148-0.029v20.687
	c0.384,0.005,0.764,0.029,1.148,0.029c52.757,0,95.677-42.92,95.677-95.677S365.646,160.323,312.889,160.323z"/>
<path style="fill:#FFC91B;" d="M199.111,408.566c-52.757,0-95.677-42.92-95.677-95.677s42.92-95.677,95.677-95.677
	s95.677,42.92,95.677,95.677S251.868,408.566,199.111,408.566z M199.111,237.899c-41.35,0-74.99,33.64-74.99,74.99
	s33.64,74.99,74.99,74.99s74.99-33.64,74.99-74.99S240.461,237.899,199.111,237.899z"/>
<path style="fill:#D48B07;" d="M199.111,387.879c41.35,0,74.99-33.64,74.99-74.99s-33.64-74.99-74.99-74.99v-20.687
	c52.757,0,95.677,42.92,95.677,95.677s-42.92,95.677-95.677,95.677V387.879z"/>
<g>
</g>
<g>
</g>
<g>
</g>
<g>
</g>
<g>
</g>
<g>
</g>
<g>
</g>
<g>
</g>
<g>
</g>
<g>
</g>
<g>
</g>
<g>
</g>
<g>
</g>
<g>
</g>
<g>
</g>
</svg>
